<?xml version="1.0" encoding="UTF-8" standalone="no"?>
<!-- Created with Inkscape (http://www.inkscape.org/) -->
<svg
   xmlns:svg="http://www.w3.org/2000/svg"
   xmlns="http://www.w3.org/2000/svg"
   xmlns:xlink="http://www.w3.org/1999/xlink"
   version="1.0"
   width="48"
   height="48">
  <defs
     id="defs2229">
    <linearGradient
       id="linearGradient3309">
      <stop
         style="stop-color:#8f0000;stop-opacity:1"
         offset="0"
         id="stop3311" />
      <stop
         style="stop-color:#be0000;stop-opacity:1"
         offset="1"
         id="stop3313" />
    </linearGradient>
    <linearGradient
       id="linearGradient2199">
      <stop
         style="stop-color:#8f0000;stop-opacity:1"
         offset="0"
         id="stop2201" />
      <stop
         style="stop-color:#bf0000;stop-opacity:1"
         offset="1"
         id="stop2203" />
    </linearGradient>
    <linearGradient
       x1="34.913395"
       y1="47.911613"
       x2="34.559841"
       y2="0.093517713"
       id="linearGradient3237"
       xlink:href="#linearGradient2199"
       gradientUnits="userSpaceOnUse"
       gradientTransform="matrix(0.9944959,0,0,1.0017939,72.263151,6.1599889)" />
    <linearGradient
       x1="28.25"
       y1="47.875"
       x2="28.5"
       y2="0"
       id="linearGradient3315"
       xlink:href="#linearGradient3309"
       gradientUnits="userSpaceOnUse"
       gradientTransform="translate(-0.6250002,-0.625)" />
    <linearGradient
       x1="28.25"
       y1="47.875"
       x2="28.5"
       y2="0"
       id="linearGradient3323"
       xlink:href="#linearGradient3309"
       gradientUnits="userSpaceOnUse"
       gradientTransform="translate(-0.6250002,-0.625)" />
  </defs>
  <g
     style="opacity:1;display:inline"
     id="layer1">
    <g
       transform="translate(-76.73727,-30.871543)"
       style="display:inline"
       id="g2185">
      <path
         d="M 10.260442 -1.945946 A 2.5356266 2.5356266 0 1 1  5.1891892,-1.945946 A 2.5356266 2.5356266 0 1 1  10.260442 -1.945946 z"
         transform="translate(-0.1769042,2.6581821)"
         style="fill:#000000;fill-opacity:1;stroke:none;stroke-width:0.977;stroke-linecap:butt;stroke-miterlimit:4;stroke-dasharray:none;stroke-opacity:1"
         id="path2187" />
      <path
         d="M 10.260442 -1.945946 A 2.5356266 2.5356266 0 1 1  5.1891892,-1.945946 A 2.5356266 2.5356266 0 1 1  10.260442 -1.945946 z"
         transform="translate(7.8315327,2.6581821)"
         style="fill:#000000;fill-opacity:1;stroke:none;stroke-width:0.977;stroke-linecap:butt;stroke-miterlimit:4;stroke-dasharray:none;stroke-opacity:1;display:inline"
         id="path2189" />
      <path
         d="M 10.260442 -1.945946 A 2.5356266 2.5356266 0 1 1  5.1891892,-1.945946 A 2.5356266 2.5356266 0 1 1  10.260442 -1.945946 z"
         transform="translate(24.802095,2.6581821)"
         style="fill:#000000;fill-opacity:1;stroke:none;stroke-width:0.977;stroke-linecap:butt;stroke-miterlimit:4;stroke-dasharray:none;stroke-opacity:1;display:inline"
         id="path2191" />
      <path
         d="M 10.260442 -1.945946 A 2.5356266 2.5356266 0 1 1  5.1891892,-1.945946 A 2.5356266 2.5356266 0 1 1  10.260442 -1.945946 z"
         transform="translate(32.757046,2.6581821)"
         style="fill:#000000;fill-opacity:1;stroke:none;stroke-width:0.977;stroke-linecap:butt;stroke-miterlimit:4;stroke-dasharray:none;stroke-opacity:1;display:inline"
         id="path2193" />
      <path
         d="M 10.260442 -1.945946 A 2.5356266 2.5356266 0 1 1  5.1891892,-1.945946 A 2.5356266 2.5356266 0 1 1  10.260442 -1.945946 z"
         transform="matrix(1.1917222,0,0,1.1917222,14.791601,2.5451272)"
         style="fill:#000000;fill-opacity:1;stroke:none;stroke-width:0.977;stroke-linecap:butt;stroke-miterlimit:4;stroke-dasharray:none;stroke-opacity:1;display:inline"
         id="path2195" />
    </g>
    <g
       transform="translate(0.6249998,0.625)"
       id="g3319">
      <path
         d="M -0.62500017,-0.625 L -0.62500017,4.4375 C 0.59074383,4.6243961 1.5312498,5.638476 1.5312498,6.90625 C 1.5312498,8.1745271 0.59145083,9.2199661 -0.62500017,9.40625 L -0.62500017,12.4375 C 0.59074383,12.624396 1.5312498,13.638476 1.5312498,14.90625 C 1.5312498,16.174527 0.59145083,17.219965 -0.62500017,17.40625 L -0.62500017,20.46875 C 0.61391583,20.845993 1.5312498,21.982008 1.5312498,23.34375 C 1.5312498,24.705492 0.61391583,25.872757 -0.62500017,26.25 L -0.62500017,29.375 C 0.59263683,29.560256 1.5312498,30.60588 1.5312498,31.875 C 1.5312498,33.142774 0.59074383,34.188105 -0.62500017,34.375 L -0.62500017,37.34375 C 0.59145083,37.530034 1.5312498,38.575472 1.5312498,39.84375 C 1.5312498,41.111524 0.59074383,42.125604 -0.62500017,42.3125 L -0.62500017,47.375 L 4.4374998,47.375 C 4.6243958,46.159256 5.6384758,45.21875 6.9062498,45.21875 C 8.1745268,45.21875 9.2199658,46.158549 9.4062498,47.375 L 12.4375,47.375 C 12.624396,46.159256 13.638476,45.21875 14.90625,45.21875 C 16.174527,45.21875 17.219965,46.158549 17.40625,47.375 L 20.46875,47.375 C 20.845993,46.136084 21.982008,45.21875 23.34375,45.21875 C 24.705492,45.21875 25.872757,46.136084 26.25,47.375 L 29.375,47.375 C 29.560256,46.157363 30.60588,45.21875 31.875,45.21875 C 33.142774,45.21875 34.188105,46.159256 34.375,47.375 L 37.34375,47.375 C 37.530034,46.158549 38.575472,45.21875 39.84375,45.21875 C 41.111524,45.21875 42.125604,46.159256 42.3125,47.375 L 47.375,47.375 L 47.375,42.3125 C 46.159256,42.125604 45.21875,41.111524 45.21875,39.84375 C 45.21875,38.575472 46.158549,37.530034 47.375,37.34375 L 47.375,34.375 C 46.159256,34.188105 45.21875,33.142774 45.21875,31.875 C 45.21875,30.60588 46.157363,29.560256 47.375,29.375 L 47.375,26.25 C 46.136084,25.872757 45.21875,24.705492 45.21875,23.34375 C 45.21875,21.982008 46.136084,20.845993 47.375,20.46875 L 47.375,17.40625 C 46.158549,17.219965 45.21875,16.174527 45.21875,14.90625 C 45.21875,13.638476 46.159256,12.624396 47.375,12.4375 L 47.375,9.40625 C 46.158549,9.2199661 45.21875,8.174527 45.21875,6.90625 C 45.21875,5.6384761 46.159256,4.624396 47.375,4.4375 L 47.375,-0.625 L 42.3125,-0.625 C 42.125604,0.5907438 41.111524,1.53125 39.84375,1.53125 C 38.575472,1.5312501 37.530034,0.591451 37.34375,-0.625 L 34.375,-0.625 C 34.188105,0.5907438 33.142774,1.53125 31.875,1.53125 C 30.60588,1.5312501 29.560256,0.5926369 29.375,-0.625 L 26.25,-0.625 C 25.872757,0.6139158 24.705492,1.53125 23.34375,1.53125 C 21.982008,1.5312499 20.845993,0.6139158 20.46875,-0.625 L 17.40625,-0.625 C 17.219965,0.591451 16.174527,1.53125 14.90625,1.53125 C 13.638476,1.5312501 12.624396,0.5907438 12.4375,-0.625 L 9.4062498,-0.625 C 9.2199658,0.591451 8.1745268,1.53125 6.9062498,1.53125 C 5.6384758,1.5312501 4.6243958,0.5907438 4.4374998,-0.625 L -0.62500017,-0.625 z "
         style="fill:url(#linearGradient3323);fill-opacity:1;stroke:none;stroke-width:0.977;stroke-linecap:butt;stroke-miterlimit:4;stroke-dasharray:none;stroke-opacity:1"
         id="rect3263" />
      <path
         d="M 6.1249998,36.75 L 12.5,7.2500001 L 32.5,7.3750001 L 31.75,13.125 L 17.5,13.125 L 16.5,18.875 L 38.875,19 L 39,22.25 L 26.25,34.875 C 26.25,34.875 30.53125,35.15625 33.25,34.875 C 35.96875,34.59375 37.125,33.75 37.125,33.75 L 36.75,38.625 C 36.75,38.625 34.125,40 30.125,40.125 C 26.125,40.25 24.90625,39.296875 22.28125,39.328125 C 19.65625,39.359375 19.625,40.25 19.625,40.25 L 17.125,36.5 L 29.375,24.125 L 15,24.25 L 12.625,36.75 L 6.1249998,36.75 z "
         style="fill:#ffffff;fill-opacity:1;fill-rule:evenodd;stroke:none;stroke-width:1px;stroke-linecap:butt;stroke-linejoin:miter;stroke-opacity:1"
         id="path3317" />
    </g>
  </g>
</svg>
