/* XPM */
static char * vermaden_xpm[] = {
"16 16 111 2",
"  	c #272727",
". 	c #B70000",
"+ 	c #7F1E1F",
"@ 	c #E80202",
"# 	c #353731",
"$ 	c #F60000",
"% 	c #FB0000",
"& 	c #FF0000",
"* 	c #FE0101",
"= 	c #56402F",
"- 	c #DF1C1C",
"; 	c #584C4A",
"> 	c #765138",
", 	c #7B5531",
"' 	c #984C45",
") 	c #5E5E57",
"! 	c #954F49",
"~ 	c #A75348",
"{ 	c #666666",
"] 	c #696969",
"^ 	c #926F57",
"/ 	c #B16961",
"( 	c #7E7A72",
"_ 	c #93795A",
": 	c #B96D61",
"< 	c #81807F",
"[ 	c #A27960",
"} 	c #A17A61",
"| 	c #908369",
"1 	c #7F8879",
"2 	c #8A898A",
"3 	c #8E8D89",
"4 	c #FF7577",
"5 	c #9E9B9A",
"6 	c #9A9D9C",
"7 	c #C5956B",
"8 	c #9F9F9B",
"9 	c #A0A0A0",
"0 	c #9FA499",
"a 	c #FF8887",
"b 	c #CE9A70",
"c 	c #A6A4A2",
"d 	c #A5A59C",
"e 	c #D19B73",
"f 	c #ADA6A6",
"g 	c #A9AAA4",
"h 	c #C3A774",
"i 	c #D5A7A1",
"j 	c #D5AA86",
"k 	c #B5B5B5",
"l 	c #B8B8B8",
"m 	c #BAB8BB",
"n 	c #B4BFAB",
"o 	c #BDBDBD",
"p 	c #BEBEBE",
"q 	c #C2C0AF",
"r 	c #C8C7C0",
"s 	c #C8C8C8",
"t 	c #CBCBCA",
"u 	c #CECFC9",
"v 	c #C9D3D0",
"w 	c #D2D2D0",
"x 	c #D3D3D2",
"y 	c #DAD5D1",
"z 	c #DFDBDC",
"A 	c #DDDEDB",
"B 	c #DEDEDE",
"C 	c #E0E0E1",
"D 	c #E0E2E0",
"E 	c #EAE2E2",
"F 	c #E7E4E4",
"G 	c #E9E8E9",
"H 	c #FFE6BA",
"I 	c #EBEAEA",
"J 	c #F0EBE5",
"K 	c #ECECEC",
"L 	c #FFEFBE",
"M 	c #FFEFCE",
"N 	c #F4F3F4",
"O 	c #F3F4F6",
"P 	c #F5F4F1",
"Q 	c #F7F5F5",
"R 	c #F6F6F6",
"S 	c #F8F7F8",
"T 	c #F8F8F8",
"U 	c #F9F8F9",
"V 	c #FDF9E2",
"W 	c #F9F9F8",
"X 	c #F9FAFB",
"Y 	c #FAFAFA",
"Z 	c #FBFAFA",
"` 	c #FAFBFA",
" .	c #FBFCEE",
"..	c #FBFBFA",
"+.	c #FBFBFB",
"@.	c #FCFBFB",
"#.	c #FCFCFB",
"$.	c #FCFCFC",
"%.	c #FDFCFC",
"&.	c #FFFFDB",
"*.	c #F9FEFE",
"=.	c #FDFDFD",
"-.	c #FEFDFD",
";.	c #FEFDFE",
">.	c #FDFEFE",
",.	c #FEFEFD",
"'.	c #FFFFEE",
").	c #FEFEFE",
"!.	c #FFFEFE",
"~.	c #FEFFFE",
"{.	c #FFFFFF",
"{ 9 9 9 9 9 9 9 9 9 9 9 9 9 9 { ",
"9 {.{.{.{.{.{.&.L H '.{.{.{.{.9 ",
"9 {.{.{.{. .( } [ > j O {.{.{.9 ",
"9 {.{.{.>.V 7 e b , ^ U {.{.{.9 ",
"9 {.{.{.>.{.M h _ | u {.{.{.{.9 ",
"9 {.{.{.{.D y : / J {.-.{.{.{.9 ",
"9 {.{.{.m 1 ~ % $ ! A {.{.{.{.9 ",
"9 {.{.{.c v 4 * @ ' 3 N {.{.{.9 ",
"9 {.{.{.q n a & . = 0 S {.{.{.9 ",
"9 {.{.{.Q *.i - + 5 {.!.{.{.{.9 ",
"9 {.{.{.{.r 6 E f l +.{.{.{.{.9 ",
"9 {.{.{.{.d P {.~.2 C {.{.{.{.9 ",
"9 {.{.{.K ] o I G < g {.{.{.{.9 ",
"9 {.{.{.p   ) k 8 # ; F {.{.{.9 ",
"9 {.{.{.).B w s t x z Z {.{.{.9 ",
"{ 9 9 9 9 9 9 9 9 9 9 9 9 9 9 { "};
