/* XPM */
static char * xlock_xpm[] = {
"64 64 17 1",
" 	c None",
".	c #000000",
"+	c #101010",
"@	c #630000",
"#	c #FF0000",
"$	c #424242",
"%	c #9C4A4A",
"&	c #636331",
"*	c #FF6363",
"=	c #CE9C63",
"-	c #ADADAD",
";	c #BDBDBD",
">	c #CECECE",
",	c #FFCE9C",
"'	c #DEDEDE",
")	c #FFFFCE",
"!	c #FFFFFF",
"!!!!!!!!!!!!!!!!!!!!!!!!!!!!!!!!!!!!!!!!!!!!!!!!!!!!!!!!!!!!!!!!",
"!..............................................................!",
"!.!!!!!!!!!!!!!!!!!!!!!!!!!!!!!!!!!!!!!!!!!!!!!!!!!!!!!!!!!!!!.!",
"!.!!!!!!!!!!!!!!!!!!!!!!!!!!!!!!!!!!!!!!!!!!!!!!!!!!!!!!!!!!!!.!",
"!.!!!!!!!!!!!!!!!!!!!!!!!!!!!!!!!!!!!!!!!!!!!!!!!!!!!!!!!!!!!!.!",
"!.!!!!!!!!!!!!!!!!!!!!!!!!!!!!!!!!!!!!!!!!!!!!!!!!!!!!!!!!!!!!.!",
"!.!!!!!!!!!!!!!!!!!!!!!!!!!!!!!!!!!!!!!!!!!!!!!!!!!!!!!!!!!!!!.!",
"!.!!!!!!!!!!!!!!!!!!!!!!!!!!!!!!!!!!!!!!!!!!!!!!!!!!!!!!!!!!!!.!",
"!.!!!!!!!!!!!!!!!!!!!!!!!!!!!!!!!!!!!!!!!!!!!!!!!!!!!!!!!!!!!!.!",
"!.!!!!!!!!!!!!!!!!!!!!!!!!!!!!!!!!!!!!!!!!!!!!!!!!!!!!!!!!!!!!.!",
"!.!!!!!!!!!!!!!!!!!!!!!!!!!!!!!!!!!!!!!!!!!!!!!!!!!!!!!!!!!!!!.!",
"!.!!!!!!!!!!!!!!!!!!!!!!!!!!!!!!!!!!!!!!!!!!!!!!!!!!!!!!!!!!!!.!",
"!.!!!!!!!!!!!!!!!!!!!!!!!!!!!!!!!!!!!!!!!!!!!!!!!!!!!!!!!!!!!!.!",
"!.!!!!!!!!!!!!!!!!!!!!!!!!!!!!!!!!!!!!!!!!!!!!!!!!!!!!!!!!!!!!.!",
"!.!!!!!!!!!!!!!!!!!!!!!!!!!!!!!!!!!!!!!!!!!!!!!!!!!!!!!!!!!!!!.!",
"!.!!!!!!!!!!!!!!!!!!!!!!!!!!!!))))))!!!!!!!!!!!!!!!!!!!!!!!!!!.!",
"!.!!!!!!!!!!!!!!!!!!!!!!!!!!!!))),,,,)!!!!!!!!!!!!!!!!!!!!!!!!.!",
"!.!!!!!!!!!!!!!!!!!!!!!!!!!!!)),,,,,,,)!!!!!!!!!!!!!!!!!!!!!!!.!",
"!.!!!!!!!!!!!!!!!!!!!!!!!!)!-+%,,%+%,=>!!!!!!!!!!!!!!!!!!!!!!!.!",
"!.!!!!!!!!!!!!!!!!!!!!!!!!))+++,,+++==%!!!!!!!!!!!!!!!!!!!!!!!.!",
"!.!!!!!!!!!!!!!!!!!!!!!!!!),%+%,,%+&=%&!!!!!!!!!!!!!!!!!!!!!!!.!",
"!.!!!!!!!!!!!!!!!!!!!!!!!!),,,,,,,==%&%!!!!!!!!!!!!!!!!!!!!!!!.!",
"!.!!!!!!!!!!!!!!!!!!!!!!!!!,,,=====%&&>!!!!!!!!!!!!!!!!!!!!!!!.!",
"!.!!!!!!!!!!!!!!!!!!!!!!!!!),===%%&$&-!!!!!!!!!!!!!!!!!!!!!!!!.!",
"!.!!!!!!!!!!!!!!!!!!!!!!!!!!!>=&$&&-'!!!!!!!!!!!!!!!!!!!!!!!!!.!",
"!.!!!!!!!!!!!!!!!!!!!!!!!!!!!!!&-!!!!!!!!!!!!!!!!!!!!!!!!!!!!!.!",
"!.!!!!!!!!!!!!!!!!!!!!!!!!!'!,*@@*,!!!!!!!!!!!!!!!!!!!!!!!!!!!.!",
"!.!!!!!!!!!!!!!!!!!!!!!!>-&+$%####%$!!!!!!!!!!!!!!!!!!!!!!!!!!.!",
"!.!!!!!!!!!!!!!!!!!!!!!;$$&&%######$&!!!!!!!!!!!!!!!!!!!!!!!!!.!",
"!.!!!!!!!!!!!!!!!!!!!!!;$;!!*######%$%!!!!!!!!!!!!!!!!!!!!!!!!.!",
"!.!!!!!!!!!!!!!!!!!!!!!!+!!!*#####@%'+;!!!!!!!!!!!!!!!!!!!!!!!.!",
"!.!!!!!!!!!!!!!!!!!!!!!!$-!!######@@)>+!!!!!!!!!!!!!!!!!!!!!!!.!",
"!.!!!!!!!!!!!!!!!!!!!!!!&&!!*#####@$)$$!!!!!!!!!!!!!!!!!!!!!!!.!",
"!.!!!!!!!!!!!!!!!!!!!!!!&&!!*####@@&+&!!!!!!!!!!!!!!!!!!!!!!!!.!",
"!.!!!!!!!!!!!!!!!!!!!!!!'-!!=####@@+-!!!!!!!!!!!!!!!!!!!!!!!!!.!",
"!.!!!!!!!!!!!!!!!!!!!!!!!!!!'*##@@+-!!!!!!!!!!!!!!!!!!!!!!!!!!.!",
"!.!!!!!!!!!!!!!!!!!!!!!!!!!!;+*%%%-!!!!!!!!!!!!!!!!!!!!!!!!!!!.!",
"!.!!!!!!!!!!!!!!!!!!!!!!!!!-+'!!!$-!!!!!!!!!!!!!!!!!!!!!!!!!!!.!",
"!.!!!!!!!!!!!!!!!!!!!!!!!!&+!!!!!-+-!!!!!!!!!!!!!!!!!!!!!!!!!!.!",
"!.!!!!!!!!!!!!!!!!!!!!!!!-$!!!!!!!'+$!!!!!!!!!!!!!!!!!!!!!!!!!.!",
"!.!!!!!!!!!!!!!!!!!!!!!!!>&!!!!!!!!-+!!!!!!!!!!!!!!!!!!!!!!!!!.!",
"!.!!!!!!!!!!!!!!!!!!!!!!!;$!!!!!!!!;$!!!!!!!!!!!!!!!!!!!!!!!!!.!",
"!.!!!!!!!!!!!!!!!!!!!!!!!-$'!'!'!'!'+!!!!!!!!!!!!!!!!!!!!!!!!!.!",
"!.!!!!!!!!!!!!!!!!!!!!!!-$+$-'>>>>-$+&-!!!!!!!!!!!!!!!!!!!!!!!.!",
"!.!!!!!!!!!!!!!!!!!!!!!!+++++;;;-;$+++$'!!!!!!!!!!!!!!!!!!!!!!.!",
"!.!!!!!!!!!!!!!!!!!!!!!'-$+$&-----&$+$%>'!!!!!!!!!!!!!!!!!!!!!.!",
"!.!!!!!!!!!!!!!!!!!!!!!'>>;;;------;;;>>'!!!!!!!!!!!!!!!!!!!!!.!",
"!.!!!!!!!!!!!!!!!!!!!!!!'>>>;-;;;;;;>>>'!!!!!!!!!!!!!!!!!!!!!!.!",
"!.!!!!!!!!!!!!!!!!!!!!!!!'''''>>>>'''''!!!!!!!!!!!!!!!!!!!!!!!.!",
"!.!!!!!!!!!!!!!!!!!!!!!!!!!!!!!!!!!!!!!!!!!!!!!!!!!!!!!!!!!!!!.!",
"!.!!!!!!!!!!!!!!!!!!!!!!!!!!!!!!!!!!!!!!!!!!!!!!!!!!!!!!!!!!!!.!",
"!.!!!!!!!!!!!!!!!!!!!!!!!!!!!!!!!!!!!!!!!!!!!!!!!!!!!!!!!!!!!!.!",
"!.!!!!!!!!!!!!!!!!!!!!!!!!!!!!!!!!!!!!!!!!!!!!!!!!!!!!!!!!!!!!.!",
"!.!!!!!!!!!!!!!!!!!!!!!!!!!!!!!!!!!!!!!!!!!!!!!!!!!!!!!!!!!!!!.!",
"!.!!!!!!!!!!!!!!!!!!!!!!!!!!!!!!!!!!!!!!!!!!!!!!!!!!!!!!!!!!!!.!",
"!.!!!!!!!!!!!!!!!!!!!!!!!!!!!!!!!!!!!!!!!!!!!!!!!!!!!!!!!!!!!!.!",
"!.!!!!!!!!!!!!!!!!!!!!!!!!!!!!!!!!!!!!!!!!!!!!!!!!!!!!!!!!!!!!.!",
"!.!!!!!!!!!!!!!!!!!!!!!!!!!!!!!!!!!!!!!!!!!!!!!!!!!!!!!!!!!!!!.!",
"!.!!!!!!!!!!!!!!!!!!!!!!!!!!!!!!!!!!!!!!!!!!!!!!!!!!!!!!!!!!!!.!",
"!.!!!!!!!!!!!!!!!!!!!!!!!!!!!!!!!!!!!!!!!!!!!!!!!!!!!!!!!!!!!!.!",
"!.!!!!!!!!!!!!!!!!!!!!!!!!!!!!!!!!!!!!!!!!!!!!!!!!!!!!!!!!!!!!.!",
"!.!!!!!!!!!!!!!!!!!!!!!!!!!!!!!!!!!!!!!!!!!!!!!!!!!!!!!!!!!!!!.!",
"!..............................................................!",
"!!!!!!!!!!!!!!!!!!!!!!!!!!!!!!!!!!!!!!!!!!!!!!!!!!!!!!!!!!!!!!!!"};
